#N canvas 291 348 735 601 12;
#X obj 100 120 cnv 15 375 140 empty empty color_helper_for_GUIs 5 12
0 14 -233017 -66577 0;
#X obj 133 418 pack 0 0 0;
#X floatatom 112 177 3 0 29 0 - - -, f 3;
#X floatatom 112 204 3 0 29 0 - - -, f 3;
#X floatatom 112 231 3 0 29 0 - - -, f 3;
#N canvas 15 207 606 448 RGB_____________ 0;
#X obj 262 53 inlet;
#X obj 339 55 inlet;
#X obj 405 56 inlet;
#X text 267 28 red;
#X text 337 30 green;
#X text 409 30 blue;
#X obj 405 102 t b f;
#X obj 339 160 +;
#X obj 339 185 t b f;
#X obj 339 216 +;
#X obj 339 293 outlet;
#X obj 262 79 * -65536;
#X obj 339 80 * -256;
#X obj 405 80 * -1;
#X obj 339 247 - 1;
#X connect 0 0 11 0;
#X connect 1 0 12 0;
#X connect 2 0 13 0;
#X connect 6 0 7 0;
#X connect 6 1 7 1;
#X connect 7 0 8 0;
#X connect 8 0 9 0;
#X connect 8 1 9 1;
#X connect 9 0 14 0;
#X connect 11 0 9 0;
#X connect 12 0 7 0;
#X connect 13 0 6 0;
#X connect 14 0 10 0;
#X restore 478 193 pd RGB_____________;
#X floatatom 330 176 3 0 255 0 - - -, f 3;
#X floatatom 356 176 3 0 255 0 - - -, f 3;
#X floatatom 382 176 3 0 255 0 - - -, f 3;
#X text 113 152 preset-colors;
#X obj 155 320 t b f;
#X obj 145 290 t b f;
#X text 334 154 R;
#X text 359 154 G;
#X text 387 154 B;
#X text 294 175 Back;
#X text 286 205 Front;
#X text 286 235 Label;
#N canvas 15 207 606 448 RGB_____________ 0;
#X obj 262 53 inlet;
#X obj 339 55 inlet;
#X obj 405 56 inlet;
#X text 267 28 red;
#X text 337 30 green;
#X text 409 30 blue;
#X obj 405 102 t b f;
#X obj 339 160 +;
#X obj 339 185 t b f;
#X obj 339 216 +;
#X obj 339 293 outlet;
#X obj 262 79 * -65536;
#X obj 339 80 * -256;
#X obj 405 80 * -1;
#X obj 339 247 - 1;
#X connect 0 0 11 0;
#X connect 1 0 12 0;
#X connect 2 0 13 0;
#X connect 6 0 7 0;
#X connect 6 1 7 1;
#X connect 7 0 8 0;
#X connect 8 0 9 0;
#X connect 8 1 9 1;
#X connect 9 0 14 0;
#X connect 11 0 9 0;
#X connect 12 0 7 0;
#X connect 13 0 6 0;
#X connect 14 0 10 0;
#X restore 478 223 pd RGB_____________;
#X floatatom 330 206 3 0 255 0 - - -, f 3;
#X floatatom 356 206 3 0 255 0 - - -, f 3;
#X floatatom 382 206 3 0 255 0 - - -, f 3;
#N canvas 15 207 606 448 RGB_____________ 0;
#X obj 262 53 inlet;
#X obj 339 55 inlet;
#X obj 405 56 inlet;
#X text 267 28 red;
#X text 337 30 green;
#X text 409 30 blue;
#X obj 405 102 t b f;
#X obj 339 160 +;
#X obj 339 185 t b f;
#X obj 339 216 +;
#X obj 339 293 outlet;
#X obj 262 79 * -65536;
#X obj 339 80 * -256;
#X obj 405 80 * -1;
#X obj 339 247 - 1;
#X connect 0 0 11 0;
#X connect 1 0 12 0;
#X connect 2 0 13 0;
#X connect 6 0 7 0;
#X connect 6 1 7 1;
#X connect 7 0 8 0;
#X connect 8 0 9 0;
#X connect 8 1 9 1;
#X connect 9 0 14 0;
#X connect 11 0 9 0;
#X connect 12 0 7 0;
#X connect 13 0 6 0;
#X connect 14 0 10 0;
#X restore 478 253 pd RGB_____________;
#X floatatom 330 236 3 0 255 0 - - -, f 3;
#X floatatom 356 236 3 0 255 0 - - -, f 3;
#X floatatom 382 236 3 0 255 0 - - -, f 3;
#X obj 107 20 inlet presets;
#X obj 107 45 unpack 0 0 0;
#X obj 227 45 unpack 0 0 0;
#X obj 347 45 unpack 0 0 0;
#X obj 467 45 unpack 0 0 0;
#X obj 100 100 cnv 15 375 20 empty empty PRESETS 5 12 0 14 -233017
-66577 0;
#X obj 210 100 cnv 15 15 15 empty empty BACK 5 12 0 14 -233017 -66577
0;
#X obj 330 100 cnv 15 15 15 empty empty FRONT 5 12 0 14 -233017 -66577
0;
#X obj 426 100 cnv 15 15 15 empty empty LABEL 5 12 0 14 -233017 -66577
0;
#X obj 227 20 inlet back;
#X obj 347 20 inlet front;
#X obj 467 20 inlet label;
#X obj 100 260 cnv 15 375 20 empty empty BACK 5 12 0 14 -66577 -228856
0;
#X obj 220 374 t b a;
#X obj 264 374 t b a;
#X text 139 177 Back;
#X text 139 204 Front;
#X text 139 232 Label;
#X obj 133 443 unpack 0 0 0;
#X obj 267 552 outlet fg-color;
#X obj 133 552 outlet bg-color;
#X obj 401 552 outlet label-color;
#X obj 260 260 cnv 15 15 15 empty empty FRONT 5 12 0 14 -66577 -228856
0;
#X obj 425 260 cnv 15 15 15 empty empty LABEL 5 12 0 14 -66577 -228856
0;
#X connect 1 0 44 0;
#X connect 2 0 1 0;
#X connect 3 0 11 0;
#X connect 4 0 10 0;
#X connect 5 0 1 0;
#X connect 6 0 5 0;
#X connect 7 0 5 1;
#X connect 8 0 5 2;
#X connect 10 0 1 0;
#X connect 10 1 1 2;
#X connect 11 0 1 0;
#X connect 11 1 1 1;
#X connect 18 0 39 0;
#X connect 19 0 18 0;
#X connect 20 0 18 1;
#X connect 21 0 18 2;
#X connect 22 0 40 0;
#X connect 23 0 22 0;
#X connect 24 0 22 1;
#X connect 25 0 22 2;
#X connect 26 0 27 0;
#X connect 27 0 2 0;
#X connect 27 1 3 0;
#X connect 27 2 4 0;
#X connect 28 0 6 0;
#X connect 28 1 7 0;
#X connect 28 2 8 0;
#X connect 29 0 19 0;
#X connect 29 1 20 0;
#X connect 29 2 21 0;
#X connect 30 0 23 0;
#X connect 30 1 24 0;
#X connect 30 2 25 0;
#X connect 35 0 28 0;
#X connect 36 0 29 0;
#X connect 37 0 30 0;
#X connect 39 0 1 0;
#X connect 39 1 1 1;
#X connect 40 0 1 0;
#X connect 40 1 1 2;
#X connect 44 0 46 0;
#X connect 44 1 45 0;
#X connect 44 2 47 0;
#X coords 0 -1 1 1 375 180 1 100 100;
