#N canvas 685 429 450 423 12;
#X obj 100 120 cnv 15 200 50 empty empty color_helper_for_structs 5
12 0 14 -233017 -66577 0;
#X obj 98 231 * 100;
#X obj 147 229 * 10;
#X obj 98 265 +;
#X obj 98 298 +;
#X obj 213 217 t b f;
#X obj 147 197 t b f;
#X obj 98 362 outlet;
#X floatatom 105 147 5 0 9 0 - - -, f 5;
#X floatatom 179 147 5 0 9 0 - - -, f 5;
#X floatatom 253 147 5 0 9 0 - - -, f 5;
#X obj 100 100 cnv 15 200 20 empty empty RGB 5 12 0 14 -233017 -66577
0;
#X obj 100 170 cnv 15 200 20 empty empty OUT 5 12 0 14 -66577 -228856
0;
#X obj 105 31 inlet RGB;
#X obj 105 56 unpack 0 0 0;
#X connect 1 0 3 0;
#X connect 2 0 3 1;
#X connect 3 0 4 0;
#X connect 4 0 7 0;
#X connect 5 0 4 0;
#X connect 5 1 4 1;
#X connect 6 0 3 0;
#X connect 6 1 2 0;
#X connect 8 0 1 0;
#X connect 9 0 6 0;
#X connect 10 0 5 0;
#X connect 13 0 14 0;
#X connect 14 0 8 0;
#X connect 14 1 9 0;
#X connect 14 2 10 0;
#X coords 0 -1 1 1 200 90 1 100 100;
