#N struct 1011-slider-template float x float y float w float h float
w2 float h2 float rgb;
#N canvas 317 85 1429 851 12;
#N canvas 891 309 493 174 \$0-slider-template 0;
#X obj 18 18 struct \$0-slider-template float x float y float w float
h float w2 float h2 float rgb;
#X obj 17 65 drawpolygon rgb 1 0 0 w 0 w h 0 h 0 0;
#X obj 17 91 drawpolygon rgb 1 1 1 w2 1 w2 h2 1 h2 1 1;
#X restore 649 157 pd \$0-slider-template;
#X text 611 59 RGB values are between 0 and 9;
#X text 611 77 900 is all red;
#X obj 646 490 symbol pd-\$0-slider-data;
#X msg 646 515 traverse \$1 \, bang;
#X obj 646 433 s pd-\$0-slider-data;
#X msg 646 403 clear;
#X msg 398 455 15;
#X obj 337 328 t b b b;
#X obj 337 574 append \$0-slider-template w h w2 h2 rgb;
#X obj 460 545 - 1;
#X obj 522 545 - 1;
#X obj 337 217 loadbang;
#X text 817 432 Clear the subpatch;
#X text 848 516 Get the pointer to the data subpatch;
#X obj 646 462 bng 15 250 50 0 empty empty empty 17 7 0 10 -262144
-1 -1;
#X obj 337 480 t f f;
#X obj 646 540 pointer;
#N canvas 0 50 450 300 \$0-slider-data 0;
#X scalar 1011-slider-template 0 0 133 15 132 14 666 \;;
#X coords 0 0 133 15 133 15 2 100 100;
#X restore 100 200 pd \$0-slider-data;
#X obj 100 227 outlet;
#X obj 337 410 t b b;
#X text 613 96 90 is all green \, ect;
#X floatatom 584 308 5 0 0 0 - - -, f 5;
#X msg 524 276 666;
#X msg 169 119 label \$1;
#X msg 246 119 color \$1 \$2 \$3;
#X obj 169 89 symbol;
#X obj 100 22 inlet;
#X msg 337 454 133;
#X obj 103 200 hsl 128 15 0 127 0 0 empty empty Attack -2 -8 0 10 -212993
-259271 -212993 0 1;
#X obj 246 90 pack 0 0 0;
#X obj 169 47 unpack symbol 0 0 0 0;
#X floatatom 380 93 5 0 0 0 - - -, f 5;
#X obj 169 22 inlet extras;
#X text 427 93 Rectangle RGB;
#X obj 337 287 metro 500;
#X msg 337 257 1;
#X connect 3 0 4 0;
#X connect 4 0 17 0;
#X connect 6 0 5 0;
#X connect 7 0 11 0;
#X connect 7 0 9 1;
#X connect 8 0 20 0;
#X connect 8 1 15 0;
#X connect 8 2 6 0;
#X connect 10 0 9 2;
#X connect 11 0 9 3;
#X connect 12 0 23 0;
#X connect 12 0 36 0;
#X connect 15 0 3 0;
#X connect 16 0 9 0;
#X connect 16 1 10 0;
#X connect 17 0 9 5;
#X connect 20 0 28 0;
#X connect 20 1 7 0;
#X connect 22 0 9 4;
#X connect 23 0 22 0;
#X connect 24 0 29 0;
#X connect 25 0 29 0;
#X connect 26 0 24 0;
#X connect 27 0 29 0;
#X connect 28 0 16 0;
#X connect 29 0 19 0;
#X connect 30 0 25 0;
#X connect 31 0 26 0;
#X connect 31 1 30 0;
#X connect 31 2 30 1;
#X connect 31 3 30 2;
#X connect 31 4 32 0;
#X connect 32 0 22 0;
#X connect 33 0 31 0;
#X connect 35 0 8 0;
#X connect 36 0 35 0;
#X coords 0 0 1 1 133 15 2 100 200;
