#N struct 1042-slider-template float x float y float w float h float
w2 float h2 float rgb;
#N canvas 623 177 1178 745 12;
#N canvas 1319 536 493 174 \$0-slider-template 0;
#X obj 18 18 struct \$0-slider-template float x float y float w float
h float w2 float h2 float rgb;
#X obj 20 67 filledpolygon rgb rgb 0 w2 0 w h 0 h w2 0;
#X restore 579 243 pd \$0-slider-template;
#X text 611 59 RGB values are between 0 and 9;
#X text 611 77 900 is all red;
#X obj 647 578 symbol pd-\$0-slider-data;
#X msg 647 603 traverse \$1 \, bang;
#X obj 647 521 s pd-\$0-slider-data;
#X msg 647 491 clear;
#X obj 342 358 tgl 15 0 empty empty empty 17 7 0 10 -262144 -1 -1 1
1;
#X obj 342 416 t b b b;
#X obj 338 662 append \$0-slider-template w h w2 h2 rgb;
#X obj 523 633 - 1;
#X obj 342 305 loadbang;
#X msg 342 331 1;
#X obj 342 384 metro 500;
#X text 818 520 Clear the subpatch;
#X text 849 604 Get the pointer to the data subpatch;
#X obj 647 550 bng 15 250 50 0 empty empty empty 17 7 0 10 -262144
-1 -1;
#X obj 338 568 t f f;
#X obj 647 628 pointer;
#X obj 342 498 t b b;
#X text 613 96 90 is all green \, ect;
#X floatatom 585 396 5 0 0 0 - - -, f 5;
#X msg 338 542 133;
#N canvas 147 576 450 300 \$0-slider-data 0;
#X scalar 1042-slider-template 0 0 133 133 66.5 132 400 \;;
#X coords 0 0 133 133 133 133 2 0 0;
#X restore 100 100 pd \$0-slider-data;
#X obj 461 633 / 2;
#X msg 399 543 133;
#X obj 100 100 cnv 15 133 133 empty empty empty 20 12 0 14 -262144
-66577 0;
#X obj 110 33 inlet;
#X obj 160 33 inlet;
#X obj 210 33 inlet;
#X obj 98 271 outlet;
#X obj 154 271 outlet;
#X obj 210 271 outlet;
#X msg 525 364 400;
#X connect 3 0 4 0;
#X connect 4 0 18 0;
#X connect 6 0 5 0;
#X connect 7 0 13 0;
#X connect 8 0 19 0;
#X connect 8 1 16 0;
#X connect 8 2 6 0;
#X connect 10 0 9 3;
#X connect 11 0 12 0;
#X connect 11 0 33 0;
#X connect 12 0 7 0;
#X connect 13 0 8 0;
#X connect 16 0 3 0;
#X connect 17 0 9 0;
#X connect 17 1 24 0;
#X connect 18 0 9 5;
#X connect 19 0 22 0;
#X connect 19 1 25 0;
#X connect 21 0 9 4;
#X connect 22 0 17 0;
#X connect 24 0 9 2;
#X connect 25 0 10 0;
#X connect 25 0 9 1;
#X connect 33 0 21 0;
#X coords 0 -1 1 1 133 133 2 100 100;
