#N struct 1003-template float x float y float w float h float w2 float
h2 float rgb;
#N canvas 623 177 1178 745 12;
#X text 868 113 RGB values are between 0 and 9;
#X text 868 131 900 is all red;
#X msg 656 431 traverse \$1 \, bang;
#X msg 656 319 clear;
#X obj 351 244 t b b b;
#X obj 498 461 - 1;
#X obj 351 133 loadbang;
#X msg 351 159 1;
#X text 827 348 Clear the subpatch;
#X text 858 432 Get the pointer to the data subpatch;
#X obj 656 378 bng 15 250 50 0 empty empty empty 17 7 0 10 -262144
-1 -1;
#X obj 347 396 t f f;
#X obj 656 456 pointer;
#X obj 351 326 t b b;
#X text 870 150 90 is all green \, ect;
#X floatatom 554 224 5 0 0 0 - - -, f 5;
#X msg 347 370 133;
#X obj 448 461 / 2;
#X msg 397 370 133;
#X msg 494 192 800;
#X text 157 61 Psudo circle;
#N canvas 1319 536 493 174 \$0-template 0;
#X obj 20 67 filledcurve rgb rgb 0 100 0 200 100 100 200 0 100;
#X obj 18 18 struct \$0-template float x float y float w float h float
w2 float h2 float rgb;
#X restore 653 263 pd \$0-template;
#X obj 347 490 append \$0-template w h w2 h2 rgb;
#X obj 656 349 s pd-\$0-data;
#X obj 656 406 symbol pd-\$0-data;
#N canvas 147 576 450 300 \$0-data 0;
#X scalar 1003-template 0 0 133 133 66.5 132 0 \;;
#X coords 0 0 200 200 200 200 2 0 0;
#X restore 100 100 pd \$0-data;
#X connect 2 0 12 0;
#X connect 3 0 23 0;
#X connect 4 0 13 0;
#X connect 4 1 10 0;
#X connect 4 2 3 0;
#X connect 5 0 22 3;
#X connect 6 0 7 0;
#X connect 6 0 19 0;
#X connect 7 0 4 0;
#X connect 10 0 24 0;
#X connect 11 0 22 0;
#X connect 11 1 17 0;
#X connect 12 0 22 5;
#X connect 13 0 16 0;
#X connect 13 1 18 0;
#X connect 15 0 22 4;
#X connect 16 0 11 0;
#X connect 17 0 22 2;
#X connect 18 0 5 0;
#X connect 18 0 22 1;
#X connect 19 0 15 0;
#X connect 24 0 2 0;
#X coords 0 -1 1 1 200 200 2 100 100;
