#N canvas 553 215 773 663 12;
#N canvas 1099 91 626 735 synth_vanilla 0;
#X obj 200 120 cnv 15 154 150 empty empty pd_synth_vanilla 10 12 0
14 -233017 -128992 0;
#N canvas 797 408 829 505 synth 0;
#X obj 41 53 inlet trigger;
#X obj 284 53 inlet pitch;
#X obj 51 427 outlet~;
#X obj 50 338 osc~;
#X obj 51 379 *~;
#X obj 520 52 inlet decay;
#X obj 125 277 pack 0 0;
#X obj 111 315 line~;
#X obj 111 188 pack 1 0;
#X obj 125 250 del 0;
#X obj 409 52 inlet attack;
#X obj 41 78 t b b b;
#X msg 125 133 0;
#X obj 170 53 inlet retrig;
#X obj 125 105 spigot;
#X text 208 277 Decay;
#X text 194 187 Attack;
#X text 172 132 Retrig;
#X text 39 13 pd synth;
#X connect 0 0 11 0;
#X connect 1 0 3 0;
#X connect 3 0 4 0;
#X connect 4 0 2 0;
#X connect 5 0 6 1;
#X connect 6 0 7 0;
#X connect 7 0 4 1;
#X connect 8 0 7 0;
#X connect 9 0 6 0;
#X connect 10 0 9 1;
#X connect 10 0 8 1;
#X connect 11 0 9 0;
#X connect 11 1 8 0;
#X connect 11 2 14 0;
#X connect 12 0 7 0;
#X connect 13 0 14 1;
#X connect 14 0 12 0;
#X restore 63 365 pd synth;
#X obj 184 54 inlet pitch;
#X obj 63 54 inlet trigger;
#X obj 64 395 outlet~;
#X obj 396 54 inlet decay;
#X obj 213 160 hsl 82 15 -50 50 0 0 empty empty Tuning -2 -8 0 10 -262144
-228856 -262144 0 1;
#X obj 213 220 hsl 128 15 0 1000 0 0 empty empty Decay -2 -8 0 10 -262144
-228856 -262144 0 1;
#X obj 286 54 inlet attack;
#X obj 504 54 inlet retrig;
#X obj 210 245 tgl 15 0 empty empty Retrig 17 7 0 10 -262144 -228856
-262144 0 1;
#X obj 93 300 +;
#X obj 93 268 t b f;
#X obj 307 161 nbx 3 14 -1e+037 1e+037 0 0 empty empty Hz 0 -8 0 10
-262144 -191407 -262144 0 256;
#X text 60 13 pd synth_vanilla;
#X obj 200 100 cnv 15 154 20 empty empty T 2 8 0 14 -233017 -128992
0;
#X obj 235 100 cnv 15 15 15 empty empty Hz 2 8 0 14 -233017 -128992
0;
#X obj 271 100 cnv 15 15 15 empty empty A 2 8 0 14 -233017 -128992
0;
#X obj 309 100 cnv 15 15 15 empty empty D 2 8 0 14 -233017 -128992
0;
#X obj 337 100 cnv 15 15 15 empty empty R 5 8 0 14 -233017 -128992
0;
#X obj 200 270 cnv 15 154 20 empty empty OUT~ 2 10 0 14 -162280 -228856
0;
#X obj 210 234 cnv 1 133 1 empty empty empty 20 12 0 14 -233017 -66577
0;
#X obj 209 220 cnv 1 133 1 empty empty empty 20 12 0 14 -233017 -66577
0;
#X obj 343 220 cnv 1 1 15 empty empty empty 20 12 0 14 -233017 -66577
0;
#X obj 209 220 cnv 1 1 15 empty empty empty 20 12 0 14 -233017 -66577
0;
#X obj 213 190 hsl 128 15 0 1000 0 0 empty empty Attack -2 -8 0 10
-262144 -228856 -262144 0 1;
#X obj 210 204 cnv 1 133 1 empty empty empty 20 12 0 14 -233017 -66577
0;
#X obj 209 190 cnv 1 133 1 empty empty empty 20 12 0 14 -233017 -66577
0;
#X obj 343 190 cnv 1 1 15 empty empty empty 20 12 0 14 -233017 -66577
0;
#X obj 209 190 cnv 1 1 15 empty empty empty 20 12 0 14 -233017 -66577
0;
#X obj 210 174 cnv 1 133 1 empty empty empty 20 12 0 14 -233017 -66577
0;
#X obj 209 160 cnv 1 133 1 empty empty empty 20 12 0 14 -233017 -66577
0;
#X obj 296 160 cnv 1 1 15 empty empty empty 20 12 0 14 -233017 -66577
0;
#X obj 209 160 cnv 1 1 15 empty empty empty 20 12 0 14 -233017 -66577
0;
#X obj 306 160 cnv 1 1 15 empty empty empty 20 12 0 14 -233017 -66577
0;
#X obj 343 160 cnv 1 1 15 empty empty empty 20 12 0 14 -233017 -66577
0;
#X obj 224 245 cnv 1 1 15 empty empty empty 20 12 0 14 -233017 -66577
0;
#X obj 210 244 cnv 1 1 15 empty empty empty 20 12 0 14 -233017 -66577
0;
#X obj 209 245 cnv 1 15 1 empty empty empty 20 12 0 14 -233017 -66577
0;
#X obj 209 259 cnv 1 15 1 empty empty empty 20 12 0 14 -233017 -66577
0;
#X obj 306 161 cnv 1 40 1 empty empty empty 20 12 0 14 -233017 -66577
0;
#X connect 1 0 4 0;
#X connect 2 0 11 0;
#X connect 3 0 1 0;
#X connect 5 0 7 0;
#X connect 6 0 13 0;
#X connect 7 0 1 4;
#X connect 9 0 10 0;
#X connect 10 0 1 1;
#X connect 11 0 1 2;
#X connect 12 0 11 0;
#X connect 12 1 11 1;
#X connect 13 0 12 0;
#X coords 0 -1 1 1 154 190 2 200 100;
#X restore 121 227 pd synth_vanilla;
#X obj 121 472 *~ 1;
#X obj 121 517 dac~;
#X obj 153 451 hsl 128 15 0 1 0 0 empty empty Volume -2 -8 0 10 -262144
-1 -1 0 1;
#X obj 121 97 metro 100;
#X obj 121 75 tgl 15 0 empty empty empty 17 7 0 10 -262144 -1 -1 0
1;
#X obj 193 55 hsl 128 15 0 500 0 0 empty empty Tempo_ms -2 -8 0 10
-262144 -1 -1 0 1;
#X floatatom 190 75 5 0 0 0 - - -, f 5;
#X text 119 6 tutorial_pd_vanilla_gui1;
#N canvas 775 104 973 735 synth_vanilla 1;
#X obj 200 120 cnv 15 154 150 empty empty pd_synth_vanilla 10 12 0
14 -233017 -128992 0;
#N canvas 797 408 829 505 synth 0;
#X obj 41 53 inlet trigger;
#X obj 284 53 inlet pitch;
#X obj 51 427 outlet~;
#X obj 50 338 osc~;
#X obj 51 379 *~;
#X obj 520 52 inlet decay;
#X obj 125 277 pack 0 0;
#X obj 111 315 line~;
#X obj 111 188 pack 1 0;
#X obj 125 250 del 0;
#X obj 409 52 inlet attack;
#X obj 41 78 t b b b;
#X msg 125 133 0;
#X obj 170 53 inlet retrig;
#X obj 125 105 spigot;
#X text 208 277 Decay;
#X text 194 187 Attack;
#X text 172 132 Retrig;
#X text 39 13 pd synth;
#X connect 0 0 11 0;
#X connect 1 0 3 0;
#X connect 3 0 4 0;
#X connect 4 0 2 0;
#X connect 5 0 6 1;
#X connect 6 0 7 0;
#X connect 7 0 4 1;
#X connect 8 0 7 0;
#X connect 9 0 6 0;
#X connect 10 0 9 1;
#X connect 10 0 8 1;
#X connect 11 0 9 0;
#X connect 11 1 8 0;
#X connect 11 2 14 0;
#X connect 12 0 7 0;
#X connect 13 0 14 1;
#X connect 14 0 12 0;
#X restore 63 365 pd synth;
#X obj 184 54 inlet pitch;
#X obj 63 54 inlet trigger;
#X obj 64 395 outlet~;
#X obj 396 54 inlet decay;
#X obj 213 160 hsl 82 15 -50 50 0 0 empty empty Tuning -2 -8 0 10 -262144
-228856 -262144 0 1;
#X obj 286 54 inlet attack;
#X obj 504 54 inlet retrig;
#X obj 93 300 +;
#X obj 93 268 t b f;
#X obj 307 161 nbx 3 14 -1e+037 1e+037 0 0 empty empty Hz 0 -8 0 10
-262144 -191407 -262144 0 256;
#X text 60 13 pd synth_vanilla;
#X obj 200 100 cnv 15 154 20 empty empty T 2 8 0 14 -233017 -128992
0;
#X obj 235 100 cnv 15 15 15 empty empty Hz 2 8 0 14 -233017 -128992
0;
#X obj 271 100 cnv 15 15 15 empty empty A 2 8 0 14 -233017 -128992
0;
#X obj 309 100 cnv 15 15 15 empty empty D 2 8 0 14 -233017 -128992
0;
#X obj 337 100 cnv 15 15 15 empty empty R 5 8 0 14 -233017 -128992
0;
#X obj 200 270 cnv 15 154 20 empty empty OUT~ 2 10 0 14 -162280 -228856
0;
#X obj 210 249 tgl 15 0 empty empty Retrig 17 7 0 10 -262144 -228856
-262144 0 1;
#X obj 213 190 hsl 128 15 0 127 0 0 empty empty Attack -2 -8 0 10 -262144
-228856 -262144 0 1;
#X obj 213 220 hsl 128 15 0 127 0 0 empty empty Decay -2 -8 0 10 -262144
-228856 -262144 0 1;
#X connect 1 0 4 0;
#X connect 2 0 9 0;
#X connect 3 0 1 0;
#X connect 5 0 21 0;
#X connect 6 0 11 0;
#X connect 7 0 20 0;
#X connect 8 0 19 0;
#X connect 9 0 1 2;
#X connect 10 0 9 0;
#X connect 10 1 9 1;
#X connect 11 0 10 0;
#X connect 19 0 1 1;
#X connect 20 0 1 3;
#X connect 21 0 1 4;
#X coords 0 -1 1 1 154 190 2 200 100;
#X restore 286 227 pd synth_vanilla;
#X connect 0 0 1 0;
#X connect 1 0 2 0;
#X connect 1 0 2 1;
#X connect 3 0 1 1;
#X connect 4 0 0 0;
#X connect 5 0 4 0;
#X connect 6 0 7 0;
#X connect 7 0 4 1;
